<svg width="140" height="140" viewBox="0 0 140 140" fill="none" xmlns="http://www.w3.org/2000/svg">
<g filter="url(#filter0_d_4_229)">
<circle cx="76" cy="64" r="64" fill="#DA4747"/>
<circle cx="76" cy="64" r="64" fill="url(#paint0_linear_4_229)"/>
<circle cx="76" cy="64" r="54.5" stroke="url(#paint1_linear_4_229)" stroke-opacity="0.4" stroke-width="19" stroke-dasharray="1 8"/>
</g>
<g filter="url(#filter1_ii_4_229)">
<circle cx="76" cy="64" r="45.037" fill="black" fill-opacity="0.14"/>
</g>
<circle cx="76" cy="64" r="45.037" fill="black" fill-opacity="0.14"/>
<circle cx="76" cy="64" r="44.537" stroke="black" stroke-opacity="0.15"/>
<circle cx="76" cy="64" r="63" stroke="url(#paint2_linear_4_229)" stroke-opacity="0.2" stroke-width="2"/>
<g filter="url(#filter2_d_4_229)">
<path d="M101 48.9333V77.9787C101 78.531 100.552 78.9787 100 78.9787H52C51.4477 78.9787 51 78.531 51 77.9787V48.9189C51 47.9663 52.2058 47.5532 52.7899 48.3057L64.4258 63.2947C64.8676 63.8638 65.748 63.7931 66.0934 63.1609L74.5943 47.5995C74.9727 46.9068 75.9668 46.905 76.3477 47.5962L85.3703 63.969C85.7179 64.5997 86.598 64.6673 87.0379 64.0972L99.2082 48.3224C99.7911 47.567 101 47.9791 101 48.9333Z" fill="#CE3E3E"/>
<path d="M101 48.9333V77.9787C101 78.531 100.552 78.9787 100 78.9787H52C51.4477 78.9787 51 78.531 51 77.9787V48.9189C51 47.9663 52.2058 47.5532 52.7899 48.3057L64.4258 63.2947C64.8676 63.8638 65.748 63.7931 66.0934 63.1609L74.5943 47.5995C74.9727 46.9068 75.9668 46.905 76.3477 47.5962L85.3703 63.969C85.7179 64.5997 86.598 64.6673 87.0379 64.0972L99.2082 48.3224C99.7911 47.567 101 47.9791 101 48.9333Z" fill="url(#paint3_linear_4_229)" fill-opacity="0.15"/>
<path d="M101.5 77.9787V48.9333C101.5 47.5021 99.6866 46.8838 98.8124 48.017L86.642 63.7918C86.4221 64.0768 85.982 64.043 85.8083 63.7277L76.7856 47.3549C76.2142 46.318 74.7231 46.3208 74.1555 47.3598L65.6546 62.9212C65.4819 63.2373 65.0417 63.2727 64.8208 62.9881L53.1849 47.9991C52.3086 46.8704 50.5 47.49 50.5 48.9189V77.9787C50.5 78.8072 51.1716 79.4787 52 79.4787H100C100.828 79.4787 101.5 78.8072 101.5 77.9787Z" stroke="black" stroke-opacity="0.15"/>
</g>
<defs>
<filter id="filter0_d_4_229" x="0" y="0" width="140" height="140" filterUnits="userSpaceOnUse" color-interpolation-filters="sRGB">
<feFlood flood-opacity="0" result="BackgroundImageFix"/>
<feColorMatrix in="SourceAlpha" type="matrix" values="0 0 0 0 0 0 0 0 0 0 0 0 0 0 0 0 0 0 127 0" result="hardAlpha"/>
<feOffset dx="-8" dy="8"/>
<feGaussianBlur stdDeviation="2"/>
<feColorMatrix type="matrix" values="0 0 0 0 0 0 0 0 0 0 0 0 0 0 0 0 0 0 0.2 0"/>
<feBlend mode="normal" in2="BackgroundImageFix" result="effect1_dropShadow_4_229"/>
<feBlend mode="normal" in="SourceGraphic" in2="effect1_dropShadow_4_229" result="shape"/>
</filter>
<filter id="filter1_ii_4_229" x="26.963" y="14.963" width="98.0741" height="98.0741" filterUnits="userSpaceOnUse" color-interpolation-filters="sRGB">
<feFlood flood-opacity="0" result="BackgroundImageFix"/>
<feBlend mode="normal" in="SourceGraphic" in2="BackgroundImageFix" result="shape"/>
<feColorMatrix in="SourceAlpha" type="matrix" values="0 0 0 0 0 0 0 0 0 0 0 0 0 0 0 0 0 0 127 0" result="hardAlpha"/>
<feOffset dx="-4" dy="4"/>
<feGaussianBlur stdDeviation="2"/>
<feComposite in2="hardAlpha" operator="arithmetic" k2="-1" k3="1"/>
<feColorMatrix type="matrix" values="0 0 0 0 0 0 0 0 0 0 0 0 0 0 0 0 0 0 0.12 0"/>
<feBlend mode="normal" in2="shape" result="effect1_innerShadow_4_229"/>
<feColorMatrix in="SourceAlpha" type="matrix" values="0 0 0 0 0 0 0 0 0 0 0 0 0 0 0 0 0 0 127 0" result="hardAlpha"/>
<feOffset dx="4" dy="-4"/>
<feGaussianBlur stdDeviation="2"/>
<feComposite in2="hardAlpha" operator="arithmetic" k2="-1" k3="1"/>
<feColorMatrix type="matrix" values="0 0 0 0 1 0 0 0 0 1 0 0 0 0 1 0 0 0 0.1 0"/>
<feBlend mode="normal" in2="effect1_innerShadow_4_229" result="effect2_innerShadow_4_229"/>
</filter>
<filter id="filter2_d_4_229" x="46" y="46.0789" width="56" height="37.8998" filterUnits="userSpaceOnUse" color-interpolation-filters="sRGB">
<feFlood flood-opacity="0" result="BackgroundImageFix"/>
<feColorMatrix in="SourceAlpha" type="matrix" values="0 0 0 0 0 0 0 0 0 0 0 0 0 0 0 0 0 0 127 0" result="hardAlpha"/>
<feOffset dx="-2" dy="2"/>
<feGaussianBlur stdDeviation="1"/>
<feColorMatrix type="matrix" values="0 0 0 0 0 0 0 0 0 0 0 0 0 0 0 0 0 0 0.1 0"/>
<feBlend mode="normal" in2="BackgroundImageFix" result="effect1_dropShadow_4_229"/>
<feBlend mode="normal" in="SourceGraphic" in2="effect1_dropShadow_4_229" result="shape"/>
</filter>
<linearGradient id="paint0_linear_4_229" x1="121.63" y1="18.963" x2="28.5926" y2="107.852" gradientUnits="userSpaceOnUse">
<stop stop-color="white" stop-opacity="0.2"/>
<stop offset="1" stop-color="white" stop-opacity="0"/>
</linearGradient>
<linearGradient id="paint1_linear_4_229" x1="106.815" y1="13.6296" x2="23.2593" y2="109.037" gradientUnits="userSpaceOnUse">
<stop stop-opacity="0.38"/>
<stop offset="1" stop-opacity="0.36"/>
</linearGradient>
<linearGradient id="paint2_linear_4_229" x1="45.1852" y1="119.111" x2="132.296" y2="32" gradientUnits="userSpaceOnUse">
<stop/>
<stop offset="1" stop-color="white" stop-opacity="0.5"/>
</linearGradient>
<linearGradient id="paint3_linear_4_229" x1="77.5957" y1="41.7447" x2="54.1915" y2="83.766" gradientUnits="userSpaceOnUse">
<stop stop-color="white"/>
<stop offset="1" stop-color="white" stop-opacity="0"/>
</linearGradient>
</defs>
</svg>
